<svg xmlns:xlink="http://www.w3.org/1999/xlink" width="58" height="58" viewBox="0 0 58 58" xmlns="http://www.w3.org/2000/svg"> <path fill-rule="evenodd" clip-rule="evenodd" d="M2.12777 2.14312C3.57413 0.689216 5.56395 0.0712891 7.72489 0.0712891C9.88579 0.0712891 11.8756 0.689216 13.322 2.14312C14.0016 2.82628 14.4969 3.62938 14.8309 4.51365C15.4968 4.33643 16.1777 4.20658 16.8688 4.12639L16.8789 4.12519C20.7346 3.69015 24.8075 3.30649 29 3.30649C33.193 3.30649 37.2635 3.69396 41.1148 4.1209L41.1312 4.12275C41.8225 4.20298 42.5037 4.33292 43.1697 4.51022C43.5036 3.62728 43.9986 2.8254 44.6774 2.14312C46.1239 0.689216 48.1133 0.0712891 50.2746 0.0712891C52.4354 0.0712891 54.4253 0.689216 55.8713 2.14312C57.3164 3.59539 57.928 5.58958 57.928 7.7536C57.928 9.91763 57.3164 11.9118 55.8713 13.3641C55.1744 14.0647 54.3511 14.5713 53.4434 14.908C53.6084 15.5544 53.7297 16.2143 53.8047 16.8835L53.8069 16.9015C54.2179 20.7595 54.5761 24.8225 54.5761 28.9993C54.5761 33.1762 54.2179 37.2392 53.8069 41.0939L53.8047 41.1117C53.7297 41.7823 53.608 42.4437 53.4421 43.0913C54.3507 43.4282 55.174 43.9347 55.8713 44.6354C57.3164 46.0879 57.928 48.082 57.928 50.2463C57.928 52.4102 57.3164 54.4043 55.8713 55.8567C54.4253 57.3104 52.4354 57.9284 50.2746 57.9284C48.1133 57.9284 46.1239 57.3104 44.6774 55.8567C43.9973 55.1732 43.5023 54.37 43.168 53.4854C42.5024 53.6624 41.8219 53.7923 41.1312 53.8724L41.121 53.8737C37.2654 54.3087 33.1924 54.6923 29 54.6923C24.8074 54.6923 20.738 54.3087 16.8793 53.8737L16.8688 53.8724C16.1778 53.7923 15.497 53.6624 14.8312 53.485C14.4972 54.37 14.0018 55.1732 13.322 55.8567C11.8756 57.3104 9.88579 57.9284 7.72489 57.9284C5.56395 57.9284 3.57413 57.3104 2.12777 55.8567C0.683032 54.4043 0.0712891 52.4102 0.0712891 50.2463C0.0712891 48.082 0.683032 46.0879 2.12777 44.6354C2.82525 43.9347 3.64913 43.4277 4.55757 43.0909C4.39193 42.4433 4.27043 41.7822 4.19513 41.1117L4.1932 41.0939C3.78195 37.2393 3.4237 33.1799 3.4237 28.9993C3.4237 24.8189 3.78195 20.756 4.1932 16.9045L4.19509 16.8871C4.27035 16.2168 4.39185 15.5559 4.55736 14.9086C3.64896 14.5718 2.82519 14.0651 2.12777 13.3641C0.683032 11.9118 0.0712891 9.91763 0.0712891 7.7536C0.0712891 5.58958 0.683032 3.59539 2.12777 2.14312ZM46.6394 43.2833C45.9147 43.6107 45.253 44.0569 44.6774 44.6354C44.0929 45.223 43.645 45.8989 43.3184 46.639C43.1243 46.6853 42.931 46.7509 42.742 46.8362C42.0023 47.17 41.2116 47.3907 40.3955 47.4859C36.6031 47.914 32.8205 48.2637 29 48.2637C25.1797 48.2637 21.4008 47.914 17.6045 47.4859C16.7884 47.3907 15.9977 47.17 15.2578 46.8362C15.0685 46.7509 14.8753 46.6853 14.6806 46.6386C14.3542 45.8989 13.9062 45.223 13.322 44.6354C12.7465 44.0573 12.0849 43.6111 11.3608 43.2833C11.3196 43.0609 11.2541 42.8397 11.1631 42.6224C10.868 41.9192 10.6717 41.1721 10.5844 40.4024C10.1804 36.6139 9.85227 32.8288 9.85227 28.9993C9.85227 25.1698 10.1804 21.3809 10.5844 17.5965C10.6795 16.7581 10.9039 15.9465 11.2444 15.1889C11.3183 15.0244 11.3773 14.8571 11.4218 14.6883C12.1221 14.3635 12.7627 13.9263 13.322 13.3641C13.9075 12.7756 14.3561 12.098 14.6827 11.3563C14.8804 11.3098 15.0766 11.2439 15.2687 11.1576C16.0057 10.8264 16.7929 10.6074 17.6053 10.5126C21.3973 10.0848 25.1797 9.73506 29 9.73506C32.8186 9.73506 36.595 10.0879 40.3975 10.5094C41.2089 10.6043 41.995 10.8232 42.7313 11.1541C42.9229 11.24 43.1179 11.3058 43.3146 11.3521C43.6416 12.0955 44.0907 12.7744 44.6774 13.3641C45.2371 13.927 45.8787 14.3646 46.5799 14.6895C46.6244 14.8575 46.6831 15.0241 46.7569 15.1879C47.0967 15.9447 47.3204 16.7553 47.4156 17.5927C47.8197 21.3849 48.1476 25.1736 48.1476 28.9993C48.1476 32.8252 47.8197 36.614 47.4156 40.4024C47.3281 41.1721 47.1319 41.9192 46.837 42.6224C46.7457 42.8397 46.6806 43.0609 46.6394 43.2833Z"></path> </svg>