<svg xmlns:xlink="http://www.w3.org/1999/xlink" width="48" height="60" viewBox="0 0 48 60" xmlns="http://www.w3.org/2000/svg"> <path fill-rule="evenodd" clip-rule="evenodd" d="M23.2305 0.142831C23.7257 -0.0476103 24.2738 -0.0476103 24.769 0.142831C32.6045 3.15648 36.8318 8.808 38.7651 15.3172C28.8923 14.5839 19.1072 14.5839 9.23433 15.3171C11.1677 8.80796 15.395 3.15647 23.2305 0.142831ZM8.1392 20.776C6.7853 32.4959 10.9522 45.6621 13.7629 52.488C13.9731 52.9989 14.3724 53.4086 14.8775 53.6319C16.9981 54.57 19.0517 55.191 21.0834 55.4953V56.7857C21.0834 58.5609 22.5225 60 24.2977 60C26.0729 60 27.512 58.5609 27.512 56.7857V55.3967C29.3492 55.0663 31.2078 54.4783 33.121 53.6319C33.626 53.4086 34.0253 52.9989 34.2356 52.488C37.0461 45.6621 41.2139 32.496 39.8601 20.7761C29.2469 19.9071 18.7526 19.9071 8.1392 20.776ZM39.1898 54.5271C40.9855 50.1656 43.4665 42.9823 44.7077 34.9978C45.5605 36.7777 46.2231 38.708 46.6898 40.6358C47.9489 45.8336 47.9858 51.807 45.9321 56.2213C45.1478 57.9069 43.6212 58.845 41.9974 58.9689C40.4202 59.0897 38.8307 58.4481 37.7009 57.2151L37.5179 57.0146C38.2307 56.3126 38.8019 55.4691 39.1898 54.5271ZM3.2903 34.9841C4.53016 42.9737 7.01249 50.1626 8.80966 54.5271C9.19666 55.467 9.76666 56.3096 10.4772 57.0107L10.2901 57.216C9.16002 58.449 7.57045 59.0906 5.99348 58.9697C4.36962 58.8454 2.84296 57.9077 2.05885 56.2221C0.00517619 51.8079 0.0421192 45.8344 1.30092 40.6365C1.76909 38.7036 2.43372 36.768 3.2903 34.9841Z"></path> </svg>