<svg xmlns:xlink="http://www.w3.org/1999/xlink" width="54" height="60" viewBox="0 0 54 60" xmlns="http://www.w3.org/2000/svg"> <path fill-rule="evenodd" clip-rule="evenodd" d="M16.4215 0.262094C18.9126 -0.548511 21.4757 0.565762 22.786 2.62452C24.8413 5.85354 26.0563 9.22005 26.6075 12.9453C26.7379 12.9414 26.8687 12.9395 27.0001 12.9395C27.1318 12.9395 27.263 12.9414 27.3937 12.9454C27.945 9.22009 29.1599 5.85358 31.2152 2.62452C32.5255 0.565762 35.0886 -0.548511 37.5798 0.262094C42.8524 1.97773 48.0926 6.34806 49.377 12.0366C49.9097 14.3966 48.6643 16.5383 46.9342 17.6511C43.524 19.8439 39.9711 21.1167 36.0144 21.6701C36.0155 21.7416 36.0161 21.8133 36.0161 21.8851C36.0161 22.0637 36.0125 22.2415 36.005 22.4182C39.9656 22.9709 43.5214 24.244 46.9342 26.4385C48.6643 27.5513 49.9097 29.6929 49.377 32.053C48.0926 37.7415 42.8524 42.1119 37.5798 43.8277C35.0886 44.6381 32.5255 43.5238 31.2152 41.4651C29.1015 38.1442 27.8767 34.6781 27.3484 30.8261C27.2327 30.8292 27.1165 30.8307 27.0001 30.8307C26.884 30.8307 26.7682 30.8292 26.6529 30.8261C26.1246 34.6781 24.8997 38.1442 22.786 41.4651C21.4757 43.5238 18.9126 44.6381 16.4215 43.8277C11.149 42.1119 5.90873 37.7415 4.62438 32.053C4.09154 29.6929 5.3368 27.5513 7.06724 26.4385C10.4797 24.2441 14.035 22.9711 17.9951 22.4183C17.9877 22.2416 17.984 22.0638 17.984 21.8851C17.984 21.8132 17.9846 21.7415 17.9858 21.6699C14.0294 21.1165 10.477 19.8437 7.06724 17.6511C5.3368 16.5383 4.09154 14.3966 4.62438 12.0366C5.90873 6.34806 11.149 1.97773 16.4215 0.262094ZM23.3412 21.8851C23.3412 20.3809 23.7597 19.5814 24.1938 19.1521C24.6322 18.7185 25.457 18.2966 27.0001 18.2966C28.5431 18.2966 29.3679 18.7185 29.8064 19.1521C30.2405 19.5814 30.659 20.3809 30.659 21.8851C30.659 23.3893 30.2405 24.1889 29.8064 24.6181C29.3679 25.0517 28.5431 25.4735 27.0001 25.4735C25.457 25.4735 24.6322 25.0517 24.1938 24.6181C23.7597 24.1889 23.3412 23.3893 23.3412 21.8851ZM6.0205 53.3818C5.07721 53.444 4.13341 53.51 3.1891 53.5807C1.4188 53.7127 0.0908175 55.2547 0.222929 57.0251C0.355045 58.7956 1.89725 60.1233 3.66751 59.9913C19.2762 58.8264 34.7233 58.8264 50.3319 59.9913C52.1023 60.1233 53.6443 58.7956 53.7767 57.0251C53.9087 55.2547 52.5806 53.7127 50.8106 53.5807C49.8656 53.51 48.921 53.4436 47.9769 53.3814C47.5406 50.3137 46.986 47.564 46.356 44.9776C44.0036 46.7737 41.3996 48.1044 38.8891 48.9217C34.1537 50.4624 29.4445 48.5193 26.8264 45.0333C24.2084 48.5197 19.4991 50.4624 14.7637 48.9217C12.3566 48.1383 9.8635 46.8826 7.5883 45.197C6.98041 47.7196 6.44453 50.4003 6.0205 53.3818Z"></path> </svg>