<svg xmlns:xlink="http://www.w3.org/1999/xlink" width="58" height="58" viewBox="0 0 58 58" xmlns="http://www.w3.org/2000/svg"> <path fill-rule="evenodd" clip-rule="evenodd" d="M46.1933 0.904393C33.8846 -0.206412 24.1159 -0.206412 11.8073 0.904393C6.25433 1.40553 1.77967 5.75453 0.994257 11.282C-0.236369 19.9429 -0.236365 26.0105 0.994257 34.6713C1.77967 40.1988 6.25433 44.548 11.8073 45.049C14.6163 45.3023 17.293 45.4981 19.8977 45.6357L18.9476 50.9881C16.9722 51.1253 14.9922 51.3019 13.0046 51.5192C11.2399 51.7116 9.96555 53.2986 10.1582 55.063C10.3509 56.8279 11.9377 58.1024 13.7024 57.9096C23.9859 56.7867 34.0472 56.7867 44.3307 57.9096C46.0956 58.1024 47.6821 56.8279 47.875 55.063C48.0674 53.2986 46.7933 51.7116 45.0284 51.5192C43.0321 51.301 41.0429 51.1236 39.0586 50.9864L38.109 45.6357C40.7118 45.4977 43.3866 45.3023 46.1933 45.049C51.7463 44.548 56.221 40.1988 57.0061 34.6713C58.237 26.0105 58.237 19.9429 57.0061 11.282C56.221 5.75453 51.7463 1.40553 46.1933 0.904393ZM12.3852 7.30695C24.3093 6.23085 33.6913 6.23085 45.6156 7.30695C48.1266 7.53357 50.266 9.54135 50.6414 12.1864C51.787 20.2473 51.787 25.706 50.6414 33.7669C50.266 36.412 48.1266 38.4198 45.6156 38.6464C33.6913 39.7225 24.3093 39.7225 12.3851 38.6464C9.87392 38.4198 7.73475 36.412 7.35889 33.7669C6.21353 25.706 6.21353 20.2473 7.35889 12.1864C7.73475 9.54135 9.87392 7.53357 12.3852 7.30695ZM32.9328 14.0278C33.8871 12.8974 35.577 12.7546 36.7074 13.7088L36.7152 13.7154L36.7315 13.7293L36.7889 13.7782L36.9948 13.9561C37.1695 14.1081 37.4161 14.3253 37.711 14.592C38.2977 15.1228 39.0886 15.862 39.8874 16.6815C40.6748 17.4892 41.5263 18.4324 42.199 19.3669C42.535 19.834 42.8671 20.3545 43.1239 20.8984C43.3651 21.4088 43.6377 22.1404 43.6377 22.9771C43.6377 23.8137 43.3651 24.5453 43.1239 25.0557C42.8671 25.5997 42.535 26.1201 42.199 26.5872C41.5263 27.5217 40.6748 28.4649 39.8874 29.2726C39.0886 30.0922 38.2977 30.8313 37.711 31.3621C37.4161 31.6288 37.1695 31.846 36.9948 31.9981L36.7889 32.1759L36.7315 32.2249L36.7152 32.2387L36.7102 32.2429C35.5798 33.1972 33.8871 33.0567 32.9328 31.9263C31.9787 30.796 32.1214 29.1063 33.2515 28.152L38.1678 22.9771C38.0918 22.8474 37.9879 22.687 37.8506 22.4962C37.402 21.8729 36.7587 21.1466 36.0512 20.4208C35.3551 19.7066 34.6513 19.048 34.1168 18.5645C33.8511 18.3241 33.6306 18.13 33.4783 17.9975L33.3046 17.8474L33.262 17.8111L33.2527 17.8032C32.1226 16.8489 31.9787 15.1581 32.9328 14.0278ZM21.2933 13.7088C22.4238 12.7546 24.1137 12.8974 25.068 14.0278C26.0221 15.1581 25.8781 16.8489 24.748 17.8032L24.7388 17.8111L24.6961 17.8474L24.5225 17.9975C24.3702 18.13 24.1497 18.3241 23.8839 18.5645C23.3495 19.048 22.6456 19.7066 21.9496 20.4208C21.2421 21.1466 20.5987 21.8729 20.1501 22.4962C20.0128 22.687 19.909 22.8474 19.833 22.9771L24.7493 28.152C25.8794 29.1063 26.0221 30.796 25.068 31.9263C24.1137 33.0567 22.4209 33.1972 21.2905 32.2429L21.2856 32.2387L21.2692 32.2249L21.2118 32.1759L21.006 31.9981C20.8312 31.846 20.5846 31.6288 20.2898 31.3621C19.7031 30.8313 18.9121 30.0922 18.1133 29.2726C17.326 28.4649 16.4745 27.5217 15.802 26.5872C15.4658 26.1201 15.1338 25.5997 14.8768 25.0557C14.6357 24.5453 14.3632 23.8137 14.3632 22.9771C14.3632 22.1404 14.6357 21.4088 14.8768 20.8984C15.1338 20.3545 15.4658 19.834 15.802 19.3669C16.4745 18.4324 17.326 17.4892 18.1133 16.6815C18.9121 15.862 19.7031 15.1228 20.2898 14.592C20.5846 14.3253 20.8312 14.1081 21.006 13.9561L21.2118 13.7782L21.2692 13.7293L21.2856 13.7154L21.2933 13.7088Z"></path> </svg>